<svg xmlns="http://www.w3.org/2000/svg" viewBox="0 0 824 392" width="824" height="392"><rect x="324.0" y="22" width="176" height="176" rx="39.952" fill="#0E3A2C"/><rect x="337.024" y="35.024" width="149.952" height="149.952" rx="28.765439999999998" fill="none" stroke="#F7F3E8" stroke-width="2.4112" stroke-dasharray="5.5 4.5" opacity=".5"/><path d="M412.00,61.25 L422.94,94.94 L458.37,94.93 L429.71,115.75 L440.66,149.44 L412.00,128.62 L383.34,149.44 L394.29,115.75 L365.63,94.93 L401.06,94.94 Z" fill="#F2B705"/><g transform="translate(16.09,344.00) scale(0.151515,-0.151515)"><path d="M331.0 -14.0Q203.0 -14.0 125.0 35.0Q47.0 84.0 39.0 185.0L180.0 232.0Q184.0 169.0 229.0 138.0Q274.0 107.0 340.0 107.0Q402.0 107.0 435.0 129.0Q468.0 151.0 468.0 180.0Q468.0 213.0 426.5 230.0Q385.0 247.0 320.0 262.0Q270.0 274.0 222.0 288.0Q174.0 302.0 135.0 324.5Q96.0 347.0 73.5 382.5Q51.0 418.0 51.0 472.0Q51.0 563.0 120.5 618.5Q190.0 674.0 321.0 674.0Q451.0 674.0 522.5 619.0Q594.0 564.0 599.0 476.0L455.0 435.0Q454.0 492.0 419.0 522.0Q384.0 552.0 320.0 552.0Q263.0 552.0 233.0 533.0Q203.0 514.0 203.0 486.0Q203.0 462.0 224.0 446.5Q245.0 431.0 280.0 420.5Q315.0 410.0 358.0 400.0Q401.0 391.0 447.0 377.5Q493.0 364.0 532.5 341.5Q572.0 319.0 597.0 282.0Q622.0 245.0 622.0 188.0Q622.0 95.0 548.5 40.5Q475.0 -14.0 331.0 -14.0Z M926.0 -13.0Q832.0 -13.0 788.5 36.5Q745.0 86.0 745.0 195.0V402.0H670.0L673.0 527.0H727.0Q759.0 528.0 775.0 537.0Q791.0 546.0 796.0 571.0L809.0 645.0H900.0V528.0H1027.0V397.0H900.0V202.0Q900.0 136.0 967.0 136.0Q986.0 136.0 1003.0 139.5Q1020.0 143.0 1031.0 151.0V2.0Q999.0 -8.0 973.0 -10.5Q947.0 -13.0 926.0 -13.0Z M1250.0 -14.0Q1183.0 -14.0 1141.5 25.0Q1100.0 64.0 1100.0 136.0Q1100.0 196.0 1131.0 229.0Q1162.0 262.0 1219.5 278.0Q1277.0 294.0 1356.0 307.0Q1400.0 314.0 1422.0 323.0Q1444.0 332.0 1444.0 360.0Q1444.0 385.0 1426.0 403.0Q1408.0 421.0 1368.0 421.0Q1327.0 421.0 1296.5 398.5Q1266.0 376.0 1255.0 336.0L1113.0 378.0Q1140.0 463.0 1207.0 502.5Q1274.0 542.0 1372.0 542.0Q1492.0 542.0 1547.0 483.5Q1602.0 425.0 1602.0 300.0V219.0Q1602.0 109.0 1614.0 0.0H1472.0Q1468.0 23.0 1464.5 55.0Q1461.0 87.0 1458.0 122.0H1439.0Q1418.0 64.0 1369.0 25.0Q1320.0 -14.0 1250.0 -14.0ZM1323.0 100.0Q1359.0 100.0 1395.0 124.5Q1431.0 149.0 1447.0 190.0L1446.0 253.0Q1417.0 240.0 1384.0 234.5Q1351.0 229.0 1321.5 223.0Q1292.0 217.0 1273.5 203.5Q1255.0 190.0 1255.0 162.0Q1255.0 134.0 1274.0 117.0Q1293.0 100.0 1323.0 100.0Z M1721.0 0.0V528.0H1853.0L1856.0 349.0H1876.0Q1886.0 453.0 1926.5 496.5Q1967.0 540.0 2049.0 540.0Q2058.0 540.0 2067.0 539.5Q2076.0 539.0 2090.0 537.0L2084.0 365.0Q2068.0 372.0 2049.5 375.0Q2031.0 378.0 2017.0 378.0Q1898.0 378.0 1883.0 239.0V0.0Z M2389.0 -13.0Q2295.0 -13.0 2251.5 36.5Q2208.0 86.0 2208.0 195.0V402.0H2133.0L2136.0 527.0H2190.0Q2222.0 528.0 2238.0 537.0Q2254.0 546.0 2259.0 571.0L2272.0 645.0H2363.0V528.0H2490.0V397.0H2363.0V202.0Q2363.0 136.0 2430.0 136.0Q2449.0 136.0 2466.0 139.5Q2483.0 143.0 2494.0 151.0V2.0Q2462.0 -8.0 2436.0 -10.5Q2410.0 -13.0 2389.0 -13.0Z M2770.0 -14.0Q2676.0 -14.0 2628.5 49.0Q2581.0 112.0 2581.0 243.0V528.0H2743.0V264.0Q2743.0 117.0 2832.0 117.0Q2867.0 117.0 2890.5 141.0Q2914.0 165.0 2926.0 205.0Q2938.0 245.0 2938.0 295.0V528.0H3099.0V0.0H2971.0L2968.0 163.0H2948.0Q2926.0 69.0 2885.0 27.5Q2844.0 -14.0 2770.0 -14.0Z M3223.0 -169.0V528.0H3355.0L3357.0 378.0L3375.0 376.0Q3388.0 460.0 3434.0 501.0Q3480.0 542.0 3550.0 542.0Q3655.0 542.0 3715.0 466.5Q3775.0 391.0 3775.0 260.0Q3775.0 181.0 3751.5 119.0Q3728.0 57.0 3680.5 21.5Q3633.0 -14.0 3560.0 -14.0Q3487.0 -14.0 3445.5 25.0Q3404.0 64.0 3380.0 140.0H3361.0Q3369.0 99.0 3376.5 58.0Q3384.0 17.0 3384.0 -19.0V-169.0ZM3501.0 113.0Q3550.0 113.0 3578.5 153.0Q3607.0 193.0 3607.0 259.0Q3607.0 329.0 3576.5 369.5Q3546.0 410.0 3497.0 410.0Q3456.0 410.0 3431.5 387.0Q3407.0 364.0 3395.5 331.5Q3384.0 299.0 3384.0 271.0V249.0Q3384.0 218.0 3398.0 186.5Q3412.0 155.0 3438.0 134.0Q3464.0 113.0 3501.0 113.0Z" fill="#0E3A2C"/><path d="M4140.0 -14.0Q4012.0 -14.0 3934.0 35.0Q3856.0 84.0 3848.0 185.0L3989.0 232.0Q3993.0 169.0 4038.0 138.0Q4083.0 107.0 4149.0 107.0Q4211.0 107.0 4244.0 129.0Q4277.0 151.0 4277.0 180.0Q4277.0 213.0 4235.5 230.0Q4194.0 247.0 4129.0 262.0Q4079.0 274.0 4031.0 288.0Q3983.0 302.0 3944.0 324.5Q3905.0 347.0 3882.5 382.5Q3860.0 418.0 3860.0 472.0Q3860.0 563.0 3929.5 618.5Q3999.0 674.0 4130.0 674.0Q4260.0 674.0 4331.5 619.0Q4403.0 564.0 4408.0 476.0L4264.0 435.0Q4263.0 492.0 4228.0 522.0Q4193.0 552.0 4129.0 552.0Q4072.0 552.0 4042.0 533.0Q4012.0 514.0 4012.0 486.0Q4012.0 462.0 4033.0 446.5Q4054.0 431.0 4089.0 420.5Q4124.0 410.0 4167.0 400.0Q4210.0 391.0 4256.0 377.5Q4302.0 364.0 4341.5 341.5Q4381.0 319.0 4406.0 282.0Q4431.0 245.0 4431.0 188.0Q4431.0 95.0 4357.5 40.5Q4284.0 -14.0 4140.0 -14.0Z M4536.0 0.0V660.0H4745.0L5028.0 217.0H5040.0L5030.0 660.0H5187.0V0.0H4998.0L4695.0 468.0H4684.0L4693.0 0.0Z" fill="#0C8A4D"/></g></svg>